<svg width="3" height="8" viewBox="0 0 3 8" fill="none" xmlns="http://www.w3.org/2000/svg">
<path fill-rule="evenodd" clip-rule="evenodd" d="M1.32677 2C1.84715 2 2.27292 1.55 2.27292 1C2.27292 0.45 1.84715 0 1.32677 0C0.806384 0 0.380615 0.45 0.380615 1C0.380615 1.55 0.806384 2 1.32677 2ZM1.32677 3C0.806384 3 0.380615 3.45 0.380615 4C0.380615 4.55 0.806384 5 1.32677 5C1.84715 5 2.27292 4.55 2.27292 4C2.27292 3.45 1.84715 3 1.32677 3ZM0.380615 7C0.380615 6.45 0.806384 6 1.32677 6C1.84715 6 2.27292 6.45 2.27292 7C2.27292 7.55 1.84715 8 1.32677 8C0.806384 8 0.380615 7.55 0.380615 7Z" fill="#818EA3"/>
</svg>
