<svg width="14" height="15" viewBox="0 0 14 15" fill="none" xmlns="http://www.w3.org/2000/svg">
<path fill-rule="evenodd" clip-rule="evenodd" d="M9.37336 9.30503H10.0057L14 13.3073L12.8073 14.5L8.80503 10.5057V9.87336L8.58891 9.64923C7.67639 10.4337 6.49171 10.9059 5.20297 10.9059C2.32933 10.9059 0 8.57662 0 5.70297C0 2.82933 2.32933 0.5 5.20297 0.5C8.07662 0.5 10.4059 2.82933 10.4059 5.70297C10.4059 6.99171 9.93368 8.17639 9.14923 9.08891L9.37336 9.30503ZM1.69702 5.80302C1.69702 7.79837 3.30773 9.40908 5.30308 9.40908C7.29844 9.40908 8.90914 7.79837 8.90914 5.80302C8.90914 3.80767 7.29844 2.19696 5.30308 2.19696C3.30773 2.19696 1.69702 3.80767 1.69702 5.80302Z" fill="#CACEDB"/>
</svg>
